/* XPM */
static char * BIGDOOR_xpm[] = {
"64 64 74 1",
" 	c #272727",
".	c #3F2F17",
"+	c #2B230F",
"@	c #43331B",
"#	c #533F2F",
"$	c #5B472B",
"%	c #4B371B",
"&	c #332B13",
"*	c #533F1F",
"=	c #5F4323",
"-	c #6F5743",
";	c #1F170B",
">	c #170F07",
",	c #6B4727",
"'	c #5F4B37",
")	c #67533F",
"!	c #774F2B",
"~	c #373737",
"{	c #675333",
"]	c #875733",
"^	c #2F2F2F",
"/	c #232323",
"(	c #1B1B1B",
"_	c #000000",
":	c #775F4B",
"<	c #8F5F37",
"[	c #A36B3F",
"}	c #BF7B4B",
"|	c #775F3F",
"1	c #9B633B",
"2	c #7F532F",
"3	c #7B634F",
"4	c #E79B6B",
"5	c #13230B",
"6	c #B37347",
"7	c #3B3B3B",
"8	c #373F27",
"9	c #131313",
"0	c #D78B5B",
"a	c #F7AB7B",
"b	c #DF9363",
"c	c #070707",
"d	c #0B0B0B",
"e	c #836B57",
"f	c #AB6F43",
"g	c #836B4B",
"h	c #CB7F4F",
"i	c #CF8353",
"j	c #474747",
"k	c #4F3B23",
"l	c #EFA373",
"m	c #FFBF9B",
"n	c #574333",
"o	c #FFBB93",
"p	c #FFCFB3",
"q	c #FFB383",
"r	c #8B735B",
"s	c #4F4F4F",
"t	c #9B7F6B",
"u	c #434343",
"v	c #4B4B4B",
"w	c #FFC7A7",
"x	c #3F472B",
"y	c #0B1707",
"z	c #937B63",
"A	c #FFD3BB",
"B	c #FFE3D3",
"C	c #AF977F",
"D	c #B79F87",
"E	c #636363",
"F	c #5B5B5B",
"G	c #8F7753",
"H	c #575757",
"I	c #5B6347",
" (( &+( &+(&&+( &((  +(  ((  (( .+( &((& +(& ((& (( &+( &+(&&+(&",
"&   & && / ^    &+&   & &/+&  //&++    ^ +& & & &   & && / ^  & ",
"/  &&&     & /   /  &&&   &&  &  & +       & /& /  &&&     & /& ",
"//+/++/+++/+///+//////++++////+(/++++  //++///+///+/++/+++/+////",
";(;+++;9;;;;++++;;;;+++++&+;;;;;+;;;;+++;;;;+;+;+&+>d>>d>>(;;;;(",
"+/&..@(&+&&&@k.@@@&@.@.%@#k@=2<,#^^  ~kk....@.k.k#+(;;;;;; &&&&/",
"& ...@+&+&.@##k@#@@%@k@k%]h044l4b0[k^kn$@k.k@@n@k'++;;;;;+&&..& ",
"  &@.@+.+&@@##k@kk%.@#kk2ill4owlblbf*kn##k@kkkk%k'+/;;;;;;  .^/ ",
" /(@.k+..&%k#kk@@@$n%%2,.<}iila46i[=*2$k@*%##k#**'&;+;;;;; &&(( ",
"/+.@.@+.@@#@k##%@@$@!%1<]%.,6[1}2*+]=6k!%.k'$kk*kn+;+(;;;; &&+  ",
"/+..@@+.@@#k##nk#k>+@&..<*c*h<2}<++1..%@&;.*##n#k)&;/(;+(;&&&   ",
"+/&.@@/@k.kk##n#k#>c>&>;;&;!0b04f.;+>;;+_d@##k'##)&+++;;;+. &  +",
"+;(..@&@..@@'n#kkk;>;+>;&+;%6][}!&;+;d;;;>@k$#'*$)&&++;;;@&&^((&",
"  ..&@.@k^@@=$n#%#..&.+.k.;@2==,';+@.+&.&&kk$#'k='& ;;; +# ^. &+",
"  ^.&@&.@.%k#n#k%#$!=$%**.+;-::-@+&k%#n{'#$$$k$k$'& (;;@.k& & ++",
"/  . @&..@###$#kk#*{,$#*k2h[#>c@!06*###){={n$#n$$'& /++%@@^  &++",
"+/( &^&.k@k#####k*#){'k=%fi},,2.[4i!*#n{,$$'{$*=$'&&;;;~^k^^++(&",
"  ^. ^&.@@kk=$knkk${|{<i[,!!24q},!!]}i'{'#)$,$${='&&+;+k.%^&   &",
" &   ^&k@@k#$##$##'!]|fif<#$!2<=,#!1}D-){''$)$$,$)& /;;@kk^  &  ",
"   ^&^&%kkn##'#$$#{{::!!,<qb,,==iq},!!{,)$'$'$$$,{&.++;@k#^&    ",
"&/(  8&%@%n'#n#$$$=,||21,%12%@n+]1,*6f'){,$$$==$${&&+++@#n&/&+(&",
"^    8+kk@n$'n#=$$*{,=[},@k$=602,=,,<@&=2,'''$$$,)&&//;.7'^   & ",
"+ & &^+%#k$$##n$=${!%;%!2=%.]}4[k'=,@;d&*2')'#*${'&.+/(8#$^ ++/ ",
"  / &8&@k@$##$nn*$].![<iaiD[==%=*b}ll[]6+,]!'##$!)&.&  ###&&&& &",
"&/(  &&@#@'*''#$$,!++0bpmbb2=@.@2f4apa4!;%|-=$n${-& //.kk@^& /( ",
"& + &.&@k@'*$$n$$=,+c2bqa0}2!+>=,[i4ql[;;@--$*,''-& //k@@8^ /   ",
"& & &8&8k%=#$n#$$#@.&hbiih}[!.>=26iiiib,&@,,$$'{{|&. /@.^@^ &&&/",
"  /& ~&@#%n$=###$*&+%]@=,++2=&>%]%;%!.=2.+*{=$$,$-&.//^.^k^&& / ",
" /( &^^@%k{$k#n$*$*.&,]=!]!=%<[,*=2<.2!*%=,{'$#${)&&++@..@@ /+(&",
"&   &^.#k#'''n#nk$$$*&====,.14ai,%,===%@!2,={''{{-&.++@.@@    & ",
" // &^&#kk'#''#{#$#$k$k2|,+]}00hf%%],{.=-)!${{{${-&&/&@ .@  &  &",
"    &^&kkk)#$'#'k$#*$#kn{).6}hfi}2&)-k'$|'),{$$={-&&/+@&&@^  ^ &",
" (( &^/@kknk$'##$##$#%*.$n@++,2.;@@'$&''!{-{=${#)-^/&&.&&@^ ./(+",
"+/  &^+.kk$$$n#=$kk*kk@!G.,!]!+<2,%,G.$$|-{!$$'*'-.++ ^^^@.&&&&+",
" &&/&^+@%#${$'#$$kk#k#$*2%;.%=!*.^&,,#'=|,''#$=*{{.++^&&..  & &+",
"  / &^&@k#n'$'n'$#$k#$$$%.+ ,2!]@u&.@''$-{${$$$n$-^/+&+.&   & / ",
"&+(  ^^.@k''''n$'$$$kk${3{^^@@''&v@$%'''-)')$$$#$'.++&.. ^ &&/(&",
"  &/ ^..kk{{#'n,)$$#k%$,g{^ ^/;+/7@##)',|{){'$$$${.++& .+@^&& &+",
" &   8&.#kn'$'#-{#{$$k,,|{+/^&%./^k##{{{|{)!{'$'${^/+&.&.@^&    ",
"  /  ^ @k@n'$'#{,*=$#k$'|{+; &$*& 8u*{{!|)-|{'#$*).++&&&&.^&& / ",
" (( &^&@.k#'''#2!$#k###,1{&+/.$'&/.$*'){|---,$$$*)&/&+&&.. & (( ",
"  & &8 @@@#'$##-$####k$'3)&+/@#{.(@$k''{|-{${$$'$-&(/+&&@.& &&  ",
"+ && ^&@k@$nkn#){$$%kk$':'&&/.=$&+@##n'{2-''''kn#-&;&&/&@@&     ",
"& &&+^&.@@k#k$k,$$nkk#$,|{@@&@#$@@k##n'$|)'''##n#)&/&+++.@  & / ",
" /( &^k^^k#'#'#{$''kkk'{|{n#@##'$####''$2{){$=$nn'. &+(/ .. /+(&",
"&   &^.k.k%'${#){{'k$*$,|{#$#k%$$#k$k')#{${{{'$##'^+&+/  .    & ",
" // &^@#@kk#$''{$$n#$*''{)##$###k%@#k')$){{'{k#k*'&++/&     &  &",
"    &^.@k@@%$$n'$'$k$*#k{|####kkkkkk##)*{))'$#kk$'&/;+ ./+   ^ &",
" (( &^+k#.@.'##'${'k$*kk))###kkkk%#k#n)${${#'##k$'&+/&&+.+^ ./(+",
"+/  &^/kn..@#'#$*'$%$*n*$'#kk#%k*@kkkn''$,'#'n###'&+&.@ &&.&&&&+",
" &&/&^.&@k&.@$#$${##$n'#k'##=kk@kk@@8un'${{==$$$n'&;&& ~^.  & &+",
"  / &^#@@@.@k'###'kk$#$#*'nk*k%%k.@k.#nn#'$$,#k##'&; + ^..  & / ",
"&+(  ^@k.8@@#nk#k#k#$$$*#'nkkk@@@. @.x'##'######k'&++++ /@ &&/(&",
"  &/ ^&k.^k@k'k#nnk#$=##k'##%@@@.@.@.u'kk**$#kkk@'&&(+;/+&^&& &+",
" &  +^&k..k.k'k%*#kk'$kkk$##k@%%.@&@^7nk%'''kkkkk'&;;;(;++^&    ",
"/////^/@@^~..'kk*k$#n$$*k#@k@@#@@^@@.~#kk'n#%k@%@$&;;+/+;+/+&/  ",
"^^^^8^ 8^^^^8^^^^^^^^8^.88^^^^^^8^^^^8^^&^^8^^8^^^^^8^^8^^.^^^^^",
"  & &&&   /     & &/   &     &/^&&      & & &&    & &&&   /     ",
"+ &&  & & &   & & ++  &&./+ & &     / &+ &&     & &&  & & &     ",
"& &&+ / & / & / & /&& /&&   & /^& / & + + / & / &^&&+ / & / & / ",
" /( &+( &+(&&+( &((  +(  ((  /( .+( &((& +(& /(& /( &+( &+(&&+(&",
"&   & && / ^   &&&&   & & &&  //&++    ^ && & & &   & && / ^  & ",
"++&+++&+++&+++&+++&+++&+++&+++&+++&+++&+++&+++&+++&+++&+++&+++&+",
"_c+__c+__c+__c+__c+__c+__c+__c+__c+__c+__c+__c+__c+__c+__c+__c+_"};
