/* XPM */
static char * 1_xpm[] = {
"64 64 169 2",
"  	c None",
". 	c #B83810",
"+ 	c #F85810",
"@ 	c #B03808",
"# 	c #481800",
"$ 	c #F87810",
"% 	c #F06010",
"& 	c #903008",
"* 	c #A83808",
"= 	c #F88018",
"- 	c #D04008",
"; 	c #581800",
"> 	c #602000",
", 	c #702008",
"' 	c #983008",
") 	c #D84810",
"! 	c #F87010",
"~ 	c #882808",
"{ 	c #E85810",
"] 	c #F86810",
"^ 	c #782808",
"/ 	c #682008",
"( 	c #C04008",
"_ 	c #E05010",
": 	c #501808",
"< 	c #802808",
"[ 	c #F86010",
"} 	c #A03008",
"| 	c #501800",
"1 	c #E85008",
"2 	c #F88818",
"3 	c #F89020",
"4 	c #F8A820",
"5 	c #F8B820",
"6 	c #F8B028",
"7 	c #F8C058",
"8 	c #F8C060",
"9 	c #F8A028",
"0 	c #F8D870",
"a 	c #F89038",
"b 	c #F86018",
"c 	c #F8D838",
"d 	c #F8E058",
"e 	c #F0E080",
"f 	c #F88820",
"g 	c #F89018",
"h 	c #F8C028",
"i 	c #F8F868",
"j 	c #F8E868",
"k 	c #F87820",
"l 	c #201818",
"m 	c #F8F858",
"n 	c #F8A058",
"o 	c #F89850",
"p 	c #F8A840",
"q 	c #F87828",
"r 	c #D85028",
"s 	c #101010",
"t 	c #F88848",
"u 	c #F8A060",
"v 	c #E0A068",
"w 	c #E87848",
"x 	c #181010",
"y 	c #100808",
"z 	c #080808",
"A 	c #F8C868",
"B 	c #F8B060",
"C 	c #F8B058",
"D 	c #F8A068",
"E 	c #F89058",
"F 	c #F88048",
"G 	c #E08858",
"H 	c #F8B870",
"I 	c #080000",
"J 	c #302820",
"K 	c #F05820",
"L 	c #F07840",
"M 	c #F87838",
"N 	c #C87850",
"O 	c #C86840",
"P 	c #B84018",
"Q 	c #281818",
"R 	c #403028",
"S 	c #483028",
"T 	c #302020",
"U 	c #302018",
"V 	c #582818",
"W 	c #884830",
"X 	c #F86828",
"Y 	c #F06838",
"Z 	c #F05838",
"` 	c #E85020",
" .	c #F06020",
"..	c #983820",
"+.	c #482018",
"@.	c #381818",
"#.	c #382828",
"$.	c #282020",
"%.	c #584030",
"&.	c #B85838",
"*.	c #A05838",
"=.	c #604838",
"-.	c #504030",
";.	c #181810",
">.	c #403830",
",.	c #C05030",
"'.	c #987048",
").	c #883828",
"!.	c #101008",
"~.	c #883018",
"{.	c #983830",
"].	c #886040",
"^.	c #684030",
"/.	c #381008",
"(.	c #282018",
"_.	c #703018",
":.	c #905038",
"<.	c #907050",
"[.	c #A84830",
"}.	c #B86840",
"|.	c #785840",
"1.	c #583828",
"2.	c #281008",
"3.	c #201810",
"4.	c #703028",
"5.	c #704028",
"6.	c #785038",
"7.	c #886848",
"8.	c #200808",
"9.	c #584830",
"0.	c #987850",
"a.	c #582828",
"b.	c #806040",
"c.	c #685038",
"d.	c #503828",
"e.	c #403828",
"f.	c #A87850",
"g.	c #A88860",
"h.	c #705838",
"i.	c #806848",
"j.	c #382820",
"k.	c #383020",
"l.	c #685838",
"m.	c #B08858",
"n.	c #301008",
"o.	c #C09060",
"p.	c #484028",
"q.	c #504028",
"r.	c #786048",
"s.	c #786040",
"t.	c #A88058",
"u.	c #605038",
"v.	c #403020",
"w.	c #302818",
"x.	c #483828",
"y.	c #705840",
"z.	c #282010",
"A.	c #584028",
"B.	c #D89860",
"C.	c #400000",
"D.	c #902008",
"E.	c #181008",
"F.	c #685840",
"G.	c #604830",
"H.	c #807858",
"I.	c #303028",
"J.	c #504838",
"K.	c #686850",
"L.	c #505840",
"                                                  . + @ #                                                                       ",
"                                                  @ $ % &                                                                       ",
"                                                  * = $ -                                                                       ",
"                                                ; . $ = - #                                                                     ",
"                                          # > , ' ) ! ! @                                                                       ",
"                                        # ~ @ . - { ] { ^             ;           ^ , /                                         ",
"                                        ^ ( ) ) % % _ * :             : #         & ~ < #                                       ",
"                                        ~ ) ) _ ] % ( <                 /         / ^ < #                                       ",
"                                        & @ ( { ! + @ <               # < ^ ; #     # / #                                       ",
"                                      # ~ < * [ $ % . ,         # #   / } ~ < < #     #                                         ",
"                                      ; < ^ & % $ ] ( < :       > > ; & . & ~ ' ;                                               ",
"                                      | ^ ' } _ % % - * < ^ : / ~ < < * . < ^ * /                                               ",
"                                        / ~ * - _ 1 - ( ( . . . - . ' ' & > / < ;                                               ",
"                                        | , } . - ) - - % % % ] % _ ' ^ / > ^ , ;                                               ",
"                                      #   ; ' - ( ) ) _ ] = 2 3 $ { ' ^ / < @ & >                                               ",
"                                      ; ; | ~ ( ) ) _ [ $ 3 4 5 = _ ' & ~ * _ . >                                               ",
"                                      | | | ' ' - % + $ = 3 4 4 $ - ' * ' - ] ) ^ > #                                           ",
"                                        > / ^ ^ & ) ] $ = = 6 3 ] @ & . . ) ] + @ ~ / / #                                       ",
"                        / ' ;         # / ~ ~ / < ( % $ 2 $ 7 3 [ @ ' ) _ { ! ] ) @ @ @ ^ :                                     ",
"                        < + - < > ; < * ' } * ' ' - { = 3 2 8 3 % ) _ % + + ] $ { _ ) ) @ ^ , >                                 ",
"                        > ) + 1 ) ( _ + _ { % _ ) _ { 3 4 9 0 a [ + ] $ _ _ + $ % _ _ _ . ' ( ' | | / ;                         ",
"                          , * _ b + ] = $ 3 3 2 ] % ! 4 c d e 8 f $ $ $ ) - 1 = $ 1 + _ . ( _ ' ; ; :                           ",
"                            | ^ } ( + = 3 4 5 5 5 4 g h i j 8 8 7 = = % ( ( _ $ k + [ ) . ( } / #                               ",
"                l                 > . % k f 3 6 c c c d m i 0 n o p a q r . - ! k + _ - . ~ ; ;           l                     ",
"            l l s                   < _ ! $ a 8 0 j d 7 7 j e n q t n u v v w ! ! _ ( - @ > ; ;           s l l                 ",
"          x y z y                   ~ 1 ! a A B u o C 8 A A A n D E F w G u H t [ . * ) } ; / |           y z y x               ",
"        s z I z s J J               & K a 7 t L M t B 8 A 0 8 0 e o F w N O L o q P . ) & ; ;         J J s z I z s             ",
"        y I I y z Q R S S T l U V W O w n M X X Y L M M q t 8 7 9 M Y Z Z Z `  .t G w Y ..+.+.@.#.S S R Q z y I I y             ",
"          I y y I l S S $.J S %.&.O w w o M M X Y M M q Y Z o 7 p F F Z Z L L X L N w O *.=.-.#.J $.S S l I y y I               ",
"            z I ;.Q J Q l >.>.%.,. .Y L M M q X X L M Z Z F B 7 t L L Z X q Y Z ,.'.*.).V S S S >.l Q J Q ;.I z                 ",
"              y x x !.x J #.#.@.~.r r O L X X X L w w w G v H A u F F F F L r {.*.].^.V /.U R #.#.J x !.x x y                   ",
"                y z !.$.$.$.(.x +._._.:.w ,.Z O &.<.'.].*.'.w w O [.,.}.G N &.).].|.1.@.Q 2.@.(.$.$.$.!.z y                     ",
"                  I x ;.x l s ;.3.2.R ^.}.}.*.).~.4.4.).{.].].:...).).)...W 5.6.7.=.R U /.Q 8.s l x ;.x I                       ",
"                    !.z !.y y x x (.R 9.6.0.).~.4.a.4.4.).4.=.^.).4.4.4.).4.a.7.b.c.d.@./.Q x y y !.z !.                        ",
"                            y z s 3.e.%.9.0.f.+.+.a.a.a.4.4.).4.4.a.a.a.a.+.].g.6.=.%.(.3.s z y                                 ",
"                                !.y y e.c.h.i.7.+.a.a.+.4.<.0.|.a.+.+.a.+.^.g.i.h.c.e.y x !.                                    ",
"                                j.k.x (.l.l.c.m.6.n.@.a.<.g.<.g.<.1.@.@.^.o.m.c.l.l.(.x k.j.                                    ",
"                                -.-.k.l p.q.%.7.o.^.<.g.r.q.-.-.s.t.|.1.f.o.7.%.q.p.l k.-.-.                                    ",
"                                u.u.-.v.(.w.x.y.f.o.<.x.n.n.2.2.n.n.x.<.o.f.y.x.w.(.v.-.u.u.                                    ",
"                                u.l.9.e.(.I w.q.u.'.f.'.:.^.|.|.^.:.'.f.'.u.q.w.I (.e.9.l.u.                                    ",
"                                -.u.p.w.x I I z.k.A.h.b.'.B.B.B.B.'.b.h.A.k.z.I I x w.p.u.-.                                    ",
"                                (.p.x.J I I I I I w.d.c.q.c.h.h.c.q.c.d.w.I I I I I J x.p.(.                                    ",
"                                !.(.k.e.l I I C.D.I z.v.x.%.q.q.%.x.v.z.I D.C.I I l e.k.(.!.                                    ",
"                                  E.(.j.x I I C.C.C.I I 3.U w.w.U 3.I I C.C.C.I I x j.(.E.                                      ",
"                                    ;.(.3.!.I I I I I I h.I I I I h.I I I I I I !.3.(.;.                                        ",
"                                      k.x.v.(.l w.x.x.v.m.B.v v B.m.v.x.x.w.l (.v.x.k.                                          ",
"                                        w.v.-.9.h.s.i.i.t.m.f.f.m.t.i.i.s.h.9.-.v.w.                                            ",
"                                          l v.-.u.c.F.F.y.s.u.u.s.y.F.F.c.u.-.v.l                                               ",
"                                            I k.x.-.G.k.I I 9.9.I I k.G.-.x.k.I                                                 ",
"                                            x.;.j.q.k.I I I q.q.I I I k.q.j.;.x.                                                ",
"                                            u.w.j.j.(.I I I k.k.I I I (.j.j.w.u.                                                ",
"                                            y.l k.(.l.I 9.-.w.w.-.9.I l.(.k.l y.                                                ",
"                                            y.e.(.J j.e.(.;.3.3.;.(.e.j.J (.e.y.                                                ",
"                                            c.H.I.3.;.J E.(.x x (.E.J ;.3.I.H.c.                                                ",
"                                            u.F.l     J.p.I.    I.p.J.    l F.u.                                                ",
"                                            A.s.<.i.  J I.I     I I.J   i.<.s.A.                                                ",
"                                              -.K.F.H.!.I         I !.H.F.K.-.                                                  ",
"                                              ;.>.J.L.                L.J.>.;.                                                  ",
"                                                R -.$.>.K.K.    K.K.>.$.-.R                                                     ",
"                                                (.J J F.-.>.y.y.>.-.F.J J (.                                                    ",
"                                                    J %.-.k.u.u.k.-.%.J                                                         ",
"                                                                                                                                ",
"                                                                                                                                ",
"                                                                                                                                "};
