/* XPM */
static char * 4_xpm[] = {
"64 64 154 2",
"  	c None",
". 	c #501808",
"+ 	c #381008",
"@ 	c #301008",
"# 	c #983010",
"$ 	c #682008",
"% 	c #802808",
"& 	c #C04820",
"* 	c #702810",
"= 	c #782808",
"- 	c #D85028",
"; 	c #F05820",
"> 	c #F87828",
", 	c #F8C058",
"' 	c #F89038",
") 	c #702008",
"! 	c #E85020",
"~ 	c #F06020",
"{ 	c #F8A840",
"] 	c #F8F868",
"^ 	c #F8E058",
"/ 	c #883018",
"( 	c #F8D838",
"_ 	c #F0E080",
": 	c #F8E868",
"< 	c #481800",
"[ 	c #903008",
"} 	c #B84018",
"| 	c #F86828",
"1 	c #A83808",
"2 	c #D84810",
"3 	c #F88820",
"4 	c #F8A028",
"5 	c #F8F858",
"6 	c #501800",
"7 	c #B83810",
"8 	c #F87820",
"9 	c #F8C028",
"0 	c #F8B028",
"a 	c #F89020",
"b 	c #080808",
"c 	c #F8D028",
"d 	c #101010",
"e 	c #882808",
"f 	c #181010",
"g 	c #F8F840",
"h 	c #100808",
"i 	c #F8B058",
"j 	c #F88848",
"k 	c #F89850",
"l 	c #F8B060",
"m 	c #F8C060",
"n 	c #F8D870",
"o 	c #201818",
"p 	c #282020",
"q 	c #E08858",
"r 	c #F8B870",
"s 	c #F8C868",
"t 	c #F8A068",
"u 	c #E05010",
"v 	c #302820",
"w 	c #403830",
"x 	c #504030",
"y 	c #282018",
"z 	c #F05838",
"A 	c #F87838",
"B 	c #F8A058",
"C 	c #F88048",
"D 	c #F06838",
"E 	c #281818",
"F 	c #382828",
"G 	c #302020",
"H 	c #403028",
"I 	c #483028",
"J 	c #A84830",
"K 	c #E87848",
"L 	c #F07840",
"M 	c #C86840",
"N 	c #703028",
"O 	c #181810",
"P 	c #504838",
"Q 	c #785038",
"R 	c #C05030",
"S 	c #C87850",
"T 	c #C08858",
"U 	c #A87850",
"V 	c #886040",
"W 	c #B86840",
"X 	c #F8A060",
"Y 	c #A05838",
"Z 	c #C09060",
"` 	c #703018",
" .	c #381818",
"..	c #883828",
"+.	c #684030",
"@.	c #B85838",
"#.	c #884830",
"$.	c #983830",
"%.	c #704028",
"&.	c #F89858",
"*.	c #584030",
"=.	c #705838",
"-.	c #987048",
";.	c #E0A068",
">.	c #582828",
",.	c #983820",
"'.	c #806040",
").	c #905038",
"!.	c #200808",
"~.	c #382820",
"{.	c #685838",
"].	c #A88058",
"^.	c #482018",
"/.	c #D89860",
"(.	c #907050",
"_.	c #886848",
":.	c #201810",
"<.	c #605038",
"[.	c #604830",
"}.	c #987850",
"|.	c #A88860",
"1.	c #604838",
"2.	c #403020",
"3.	c #785840",
"4.	c #B08858",
"5.	c #786040",
"6.	c #685038",
"7.	c #403828",
"8.	c #504028",
"9.	c #483828",
"0.	c #584830",
"a.	c #000000",
"b.	c #E8D090",
"c.	c #383020",
"d.	c #705840",
"e.	c #080000",
"f.	c #382818",
"g.	c #101008",
"h.	c #400000",
"i.	c #902008",
"j.	c #080800",
"k.	c #302818",
"l.	c #181008",
"m.	c #484028",
"n.	c #403820",
"o.	c #302018",
"p.	c #303028",
"q.	c #786048",
"r.	c #505840",
"s.	c #807858",
"t.	c #706040",
"u.	c #806848",
"v.	c #686850",
"w.	c #685840",
"                                  . . +               + @                                                                       ",
"                                  # # .               $ .                                                                       ",
"                                  % & * +           = & - %                                                                     ",
"                                  + # $ $       . = ; > , ' )                                     % $                           ",
"                                      . = .   # ! ~ > { ] ^ &                                   $ - =                           ",
"                                      ) / & # - { ' > ( _ : ~ .     $   <           . $       / & & $ .   $                     ",
"                                      # % & ~ > ( ' > ^ _ : ~ .   . +   $ # # =   < # =     $ ! ; [ $ + $ # +                   ",
"                                      # # } | ' { > { ] _ ^ &           + # - - # 1 2 $ $ # & > } ) +   # # +                   ",
"                                      / } } ! > > > ^ ] ] , }             + # # } ; ! [ & > 3 > - =   + * .                     ",
"                                      $ 2 ! ; ~ ; 4 ] ] ] 3 =               + % # & & - > ( { 3 - .   .                         ",
"                                      . ~ ' > > ~ ( ] ] ^ &       $ /         / # 1 - ~ 4 5 { 3 #   < +                         ",
"                                      . > ( > > > ( ] ] ( - .   $ . / +       / # & ~ ! { 5 { - <                               ",
"                                  . . 6 ~ ( ' > > ( ] ] ( > =   $ < .       . - ; ~ - - { { > =                                 ",
"                                  . $   # > 4 3 ~ { 5 5 ( ~ 1 . . $ +     $ - { { > 7 ~ 4 > } <                                 ",
"                                  * % . $ & { 8 ; 8 ( { 4 ~ } . < $ $ < ) ; ( 5 ^ ~ 7 > 4 - ) . <                               ",
"                                  = / # 7 ~ 9 8 ~ 8 0 { 0 3 - ) ) = } 7 > ( 5 ] ^ a 2 a 0 7 + $ +                               ",
"                                  $ . # 8 3 0 8 8 0 5 5 ( 4 3 ~ 7 & ~ 8 ^ ] ^ 5 5 { ! 4 9 & < = <                               ",
"                                  * . # a a ; & ~ 0 5 ] 5 0 9 9 8 8 4 9 ] ^ ( ] 5 { 7 ~ 9 &                                     ",
"                b                 = # % - ~ & - 8 0 ^ ] ] c ( 5 ^ ( ( ^ ] { { ] 5 3 % } 4 }                     b               ",
"              d d                 . 2 = $ % # ~ 4 { ( ] 5 ( ( 5 ] ] 5 5 ( a 9 5 ( & e } ~ $                     d d             ",
"            b f b                   1 # .   $ ; 3 4 ( ( 9 ( g 5 _ ] 5 ( 3 4 ( g 4 2 ! 2 7 <                     b f b           ",
"            b h f           % = < . [ } # . % ! a c g 9 4 0 ^ ] ] ] ^ 0 3 ^ ^ g { ~ ; 2 # =                     f h b           ",
"            b d f f       # { ' ~ ~ - & 2 } 2 ~ 4 0 4 a 8 4 : ] : ] ^ { { 5 9 ( 9 2 1 / # } ) <               f f d b           ",
"            b f f b f     & 5 ^ { 9 4 ~ ~ ~ ~ 4 , i j k l m n n n : : : ] : i , { ~ } [ & - # [ .           f b f f b           ",
"            b f h b o p     { { 4 { { 4 9 0 ( ^ : i j q l l r _ n _ ] ] ] s t t n ' ~ u u ; 7 } [         p o b h f b           ",
"              b b f v w x w y # # & a 4 ^ 5 ] ^ , ' z z A > z B : 5 ^ ^ : C D C ' B i ' ~ - [ 1 * E y w x w v f b b             ",
"              b b o p F w v G H H I J K ^ ] ] ^ , A z L A z z B n : ^ B B D z C A A m i C M N N I H G v w F p o b b             ",
"                b b o o O o H x x P I J k , , ^ ' L L K K q q r n _ n j j j L A L D C k D J Q Q x x H o O o o b b               ",
"                  b f d o H H H w y o N R C j A L M S T U V W X X k j R Y T Z S z D C C R ` o y w H H H o d f b                 ",
"                    b b G G p G o O y  .J L K K M R ~ - ..N Y S K L A R ..N +.Q @.C j A J  .y O o G p G G b b                   ",
"                      b f o o f f p o y #.D K j > > A - N N N J L R R J ..$.J J R j C M .. .o p f f o o f b                     ",
"                        b h h h O o f y %.Y @.X &.! > $.N N N R k z J $.....J - q S @.Y R y f o O h h h b                       ",
"                            h b f d o y *.=.-.K ;.K & >.....-.r s X D - & ..,.q Z '.'.).*.y o d f b h                           ",
"                                  b f !.~.{.'.Q ].t Y ^.Y Z ].S C q /.S @.>.U /.(.Q _.{.~.!.f b                                 ",
"                                    O :.:.<.[.x _.Z /.}.|.1.2.` J J N 1.3.-./.4.5.x 6.<.:.:.O                                   ",
"                                    y 7.y :.~.8.=._.U Z '.^. .H 1.H  .^.'.Z U _.=.8.~.:.y 7.y                                   ",
"                                  O 9.0.8.O a.:.9.0.=.U U 4./.;.b.;./.4.U U =.0.9.:.a.O 8.0.9.O                                 ",
"                                O c.d.<.0.2.b a.b y 9.=.'.=.U ].}.].U =.'.=.9.y b a.b 2.0.<.d.c.O                               ",
"                                O c.d.<.9.y a.a.a.a.e.f.=.0.6.5.5.5.6.0.=.f.e.a.a.a.a.y 9.<.d.c.O                               ",
"                                O c.<.0.7.g.a.e.h.i.a.j.k.8.[.6.<.6.[.8.k.j.a.i.h.e.a.g.7.0.<.c.O                               ",
"                                  O 7.9.x O a.a.h.h.h.a.a.l.c.f.k.f.c.l.a.a.h.h.h.a.a.O x 9.7.O                                 ",
"                                  O y c.m.f a.a.a.a.a.a.a.b l.a.a.a.l.b a.a.a.a.a.a.a.f m.c.y O                                 ",
"                                    O y c.:.a.a.a.a.a.a.a.[.=.a.h a.=.[.a.a.a.a.a.a.a.:.c.y O                                   ",
"                                      O O 9.9.v O l.k.2.2.-./.4./.4./.-.2.2.k.l.O v 9.9.O O                                     ",
"                                          :.7.0.[.5.'.(.(.}.].]._.].].}.(.(.'.5.[.0.7.:.                                        ",
"                                          :.O ~.x [.<.{.{.0.9.*.6.*.9.0.{.{.<.[.x ~.O :.                                        ",
"                                            g.b y 9.*.<.9.b a.8.<.8.a.b 9.<.*.9.y b g.                                          ",
"                                              b g.k.x m.l.a.a.9.0.9.a.a.l.m.x k.g.b                                             ",
"                                              b y c.9.~.a.a.b <.n.<.b a.a.~.9.c.y b                                             ",
"                                              y y c.7.7.9.:.<.7.~.7.<.:.9.7.7.c.y y                                             ",
"                                              y f f 9.c.7.c.o :.o.:.o c.7.c.9.f f y                                             ",
"                                              y <.g.O :.p.k.y p.l.p.y k.p.:.O g.<.y                                             ",
"                                              y q.r.O a.w w b r.  r.b w w a.O r.q.y                                             ",
"                                              c.0.p O a.v w   p   p   w v a.O p 0.c.                                            ",
"                                              c.5.<.8.g.b d           d b g.8.<.5.c.                                            ",
"                                              c.<.s.d.g.                  g.d.s.<.c.                                            ",
"                                              c.x r.t.:.                  :.t.r.x c.                                            ",
"                                              c.2._._.n.                  n._._.2.c.                                            ",
"                                              c.5.(.u.5.p               p 5.u.(.5.c.                                            ",
"                                                x v.w.p r.p             r.p w.v.x                                               ",
"                                                y w P r.r.y p p p p p y r.r.P w y                                               ",
"                                                  H x p w v.v.v.v.v.v.v.w p x H                                                 ",
"                                                  y v v w.x w d.d.d.w x w.v v y                                                 ",
"                                                      v *.x c.<.<.<.c.x *.v                                                     "};
