/* XPM */
static char * 5_xpm[] = {
"64 64 155 2",
"  	c None",
". 	c #883018",
"+ 	c #D85028",
"@ 	c #C04820",
"# 	c #682008",
"$ 	c #501808",
"% 	c #B84018",
"& 	c #F05820",
"* 	c #983010",
"= 	c #A83808",
"- 	c #903008",
"; 	c #802808",
"> 	c #782808",
", 	c #702008",
"' 	c #381000",
") 	c #D84810",
"! 	c #F87828",
"~ 	c #F8A840",
"{ 	c #F88820",
"] 	c #F86828",
"^ 	c #F06020",
"/ 	c #F8E058",
"( 	c #F89038",
"_ 	c #702810",
": 	c #F8F858",
"< 	c #F8A028",
"[ 	c #E85020",
"} 	c #F8D838",
"| 	c #F87820",
"1 	c #F8B028",
"2 	c #882808",
"3 	c #F89020",
"4 	c #F8C028",
"5 	c #B83810",
"6 	c #F8F840",
"7 	c #F8F868",
"8 	c #080808",
"9 	c #F8C058",
"0 	c #E05010",
"a 	c #101010",
"b 	c #F8D870",
"c 	c #181010",
"d 	c #F0E080",
"e 	c #100808",
"f 	c #F8D028",
"g 	c #F87010",
"h 	c #F8E868",
"i 	c #F8C060",
"j 	c #E8D090",
"k 	c #201818",
"l 	c #282020",
"m 	c #F8F8F8",
"n 	c #302820",
"o 	c #403830",
"p 	c #504030",
"q 	c #282018",
"r 	c #F07840",
"s 	c #F88848",
"t 	c #F88048",
"u 	c #F87838",
"v 	c #301008",
"w 	c #482018",
"x 	c #382828",
"y 	c #483028",
"z 	c #504838",
"A 	c #302020",
"B 	c #403028",
"C 	c #583828",
"D 	c #F06838",
"E 	c #F8A058",
"F 	c #E87848",
"G 	c #F89058",
"H 	c #F89850",
"I 	c #C05030",
"J 	c #584030",
"K 	c #684030",
"L 	c #181810",
"M 	c #604838",
"N 	c #A84830",
"O 	c #A05838",
"P 	c #C86840",
"Q 	c #F89858",
"R 	c #F8B060",
"S 	c #F8B058",
"T 	c #F05838",
"U 	c #785840",
"V 	c #785038",
"W 	c #704028",
"X 	c #281818",
"Y 	c #382820",
"Z 	c #C87850",
"` 	c #E08858",
" .	c #F8A060",
"..	c #884830",
"+.	c #A88058",
"@.	c #C08858",
"#.	c #B87848",
"$.	c #886040",
"%.	c #883828",
"&.	c #B86840",
"*.	c #703028",
"=.	c #983830",
"-.	c #705838",
";.	c #983820",
">.	c #582818",
",.	c #403828",
"'.	c #685038",
").	c #302818",
"!.	c #905038",
"~.	c #987048",
"{.	c #582828",
"].	c #302018",
"^.	c #C09060",
"/.	c #D89860",
"(.	c #A88860",
"_.	c #E0A068",
":.	c #503828",
"<.	c #200808",
"[.	c #806040",
"}.	c #F8A068",
"|.	c #786040",
"1.	c #685840",
"2.	c #907050",
"3.	c #987850",
"4.	c #A87850",
"5.	c #806848",
"6.	c #584830",
"7.	c #201810",
"8.	c #604830",
"9.	c #886848",
"0.	c #403020",
"a.	c #383020",
"b.	c #504028",
"c.	c #381818",
"d.	c #483828",
"e.	c #000000",
"f.	c #B08858",
"g.	c #705840",
"h.	c #605038",
"i.	c #080000",
"j.	c #382818",
"k.	c #101008",
"l.	c #400000",
"m.	c #902008",
"n.	c #080800",
"o.	c #181008",
"p.	c #484028",
"q.	c #685838",
"r.	c #403820",
"s.	c #303028",
"t.	c #786048",
"u.	c #505840",
"v.	c #807858",
"w.	c #706040",
"x.	c #686850",
"                                                    . + @ #                               $                                     ",
"                                                    % & @ $                               #                                     ",
"                                                  * = + @                                 # #                                   ",
"                                                  = - * = #                               $ ;                                   ",
"                                                  * # > > . $                             $ *                                   ",
"                                                  #     # . *           $       >         > %                                   ",
"                                                  ; ,   $ * % >         #       * #     $ * * $                                 ",
"                                                  * * $ # * % * $     $ * % #   @ .     # . ; $                                 ",
"                                                , ; > $ . = % @ @ - $ # @ & # $ @ + $   # # # $                                 ",
"                                              ' ' , > $ % + ) ! ~ { ) @ ] + $ # ^ { *   $     $                                 ",
"                                            #     $   $ % ^ ) ! / / { ^ ! %   * ( ~ + $                                         ",
"                                            _         , % ^ ) ^ / : < ! & # , ^ ~ ~ +     # '                                   ",
"                              . ;                   $ * ^ ^ [ ^ } } { [ *   * ~ ~ ( %     # > ,           # $                   ",
"                              + =               $     * ~ ~ ^ | } 1 & > $   % < ( < + , > $ . > * ; > # 2 * $                   ",
"                            $ ^ %   $   $ # $ * - > $ 2 1 } | 3 4 | =     # @ ! < } < + @ > * @ ^ ^ + ^ ^ % # $                 ",
"                              % . $ # * > = @ ! ! & @ 5 { 6 1 4 < | %     * ) [ } : } { | @ ) { 1 ! | 3 ! % #                   ",
"                              $       # * + ! ~ } ~ ! ^ < 4 ~ } 1 < ^ - - ) ) ^ / 7 } < < ^ & ~ 1 & ^ ^ @ #                     ",
"                  8                     # % ^ ~ } ~ ~ } } { 3 4 ~ 9 ^ * * & 0 < : : } ~ ~ + [ 3 ^ = * .           8             ",
"                a a                     $ * + < < | 4 7 7 4 < 1 9 b 0 > * ^ | } 6 ~ ~ ~ ~ @ @ ^ - $               a a           ",
"              8 c 8                     $ - @ | { & 1 7 d 7 : } / b ^ 5 @ { < 4 < | ~ 4 ( % * *   , #             8 c 8         ",
"              8 e c                       > % | | ^ f 7 d d d 7 7 b ~ g ^ < { ! ^ < } } < * # , > 5 #             c e 8         ",
"              8 a c c                 ' $ ; @ { < 1 6 7 7 d d d d h i 9 1 3 { | { 4 } 6 < 5 - @ ^ % '           c c a 8         ",
"              8 c c 8 c               @ + % + < } : 7 d 7 d d j d 7 7 7 h i 9 9 / } f } | 0 % + ^ #           c 8 c c 8         ",
"              8 c e 8 k l           , 3 1 & & { h 7 d 7 7 d d d m j m d / 9 b 7 7 h ~ < & 0 = = ,           l k 8 e c 8         ",
"                8 8 c n o p o q     , 3 } ^ r s / 7 7 / / / : 7 d m m 7 / ~ 9 7 7 ~ t ~ u + @ = ' v w x y z o n c 8 8           ",
"                8 8 k l x o n A B B C D E F G E ~ / 9 u H s } 9 h d d 7 9 E 9 7 / r I E E s t I C J K A l o x l k 8 8           ",
"                  8 8 k k L k B p p M K N O P u ~ ~ ( r Q Q i R j d d R F F G S r T T P P r ! I U V W y k L k k 8 8             ",
"                    8 c a k B B B o X k Y p O D u E F Z ` Z F t  . .t D ..V +.@.#.T I $.V I & % % %.y B B k a c 8               ",
"                      8 8 A A l A k L q q B V &.s s N %.%.*.I r F F u T =.%.*.K -.P &.$...I % @ ;.>.>.l A A 8 8                 ",
"                        8 c k k c c l k k ,.'.&.s N ;.N %.*.I T + D r + %.%.*.%.N D F P I %.>.;.. . c k k c 8                   ",
"                          8 e e e L k c ).p !.P @.~.% T =.{.%.N I &.N %.*.*.*.*.I  .G r P C ].>._ . e e e 8                     ",
"                              e 8 c a k ].W O &.$.^.t + %.w {.~./.(.+.%.w w {.{.Z _.&.&.!.:.].X a c 8 e                         ",
"                                    8 c <.>.-.[.'.+.}.&.w U (.+.|.1.2.(.3.K w 3._.4.'.5.6.q c c 8                               ",
"                                      L 7.7.6.8.J 9.^./.3.(.M 0.a.Y a.0.M (.3./.^.9.J 8.6.7.7.L                                 ",
"                                      q ,.q 7.Y b.-.9.4.^.[.w c.B M B c.w [.^.4.9.-.b.Y 7.q ,.q                                 ",
"                                    L d.6.b.L e.7.d.6.-.4.4.f./._.j _./.f.4.4.-.6.d.7.e.L b.6.d.L                               ",
"                                  L a.g.h.6.0.8 e.8 q d.-.[.-.4.+.3.+.4.-.[.-.d.q 8 e.8 0.6.h.g.a.L                             ",
"                                  L a.g.h.d.q e.e.e.e.i.j.-.6.'.|.|.|.'.6.-.j.i.e.e.e.e.q d.h.g.a.L                             ",
"                                  L a.h.6.,.k.e.i.l.m.e.n.).b.8.'.h.'.8.b.).n.e.m.l.i.e.k.,.6.h.a.L                             ",
"                                    L ,.d.p L e.e.l.l.l.e.e.o.a.j.).j.a.o.e.e.l.l.l.e.e.L p d.,.L                               ",
"                                    L q a.p.c e.e.e.e.e.e.e.8 o.e.e.e.o.8 e.e.e.e.e.e.e.c p.a.q L                               ",
"                                      L q a.7.e.e.e.e.e.e.e.8.-.e.e e.-.8.e.e.e.e.e.e.e.7.a.q L                                 ",
"                                        L L d.d.n L o.).0.0.~./.f./.f./.~.0.0.).o.L n d.d.L L                                   ",
"                                            7.,.6.8.|.[.2.2.3.+.+.9.+.+.3.2.2.[.|.8.6.,.7.                                      ",
"                                            7.L Y p 8.h.q.q.6.d.J '.J d.6.q.q.h.8.p Y L 7.                                      ",
"                                              k.8 q d.J h.d.8 e.b.h.b.e.8 d.h.J d.q 8 k.                                        ",
"                                                8 k.).p p.o.e.e.d.6.d.e.e.o.p.p ).k.8                                           ",
"                                                8 q a.d.Y e.e.8 h.r.h.8 e.e.Y d.a.q 8                                           ",
"                                                q q a.,.,.d.7.h.,.Y ,.h.7.d.,.,.a.q q                                           ",
"                                                q c c d.a.,.a.k 7.].7.k a.,.a.d.c c q                                           ",
"                                                q h.k.L 7.s.).q s.o.s.q ).s.7.L k.h.q                                           ",
"                                                q t.u.L e.o o 8 u.  u.8 o o e.L u.t.q                                           ",
"                                                a.6.l L e.n o   l   l   o n e.L l 6.a.                                          ",
"                                                a.|.h.b.k.8 a           a 8 k.b.h.|.a.                                          ",
"                                                a.h.v.g.k.                  k.g.v.h.a.                                          ",
"                                                a.p u.w.7.                  7.w.u.p a.                                          ",
"                                                a.0.9.9.r.                  r.9.9.0.a.                                          ",
"                                                a.|.2.5.|.l               l |.5.2.|.a.                                          ",
"                                                  p x.1.l u.l             u.l 1.x.p                                             ",
"                                                  q o z u.u.q l l l l l q u.u.z o q                                             ",
"                                                    B p l o x.x.x.x.x.x.x.o l p B                                               ",
"                                                    q n n 1.p o g.g.g.o p 1.n n q                                               ",
"                                                        n J p a.h.h.h.a.p J n                                                   ",
"                                                                                                                                "};
