/* XPM */
static char * 2_xpm[] = {
"64 64 167 2",
"  	c None",
". 	c #481800",
"+ 	c #682008",
"@ 	c #581800",
"# 	c #501800",
"$ 	c #782808",
"% 	c #802808",
"& 	c #882808",
"* 	c #702008",
"= 	c #983008",
"- 	c #903008",
"; 	c #602000",
"> 	c #C04008",
", 	c #A03008",
"' 	c #A83808",
") 	c #D84810",
"! 	c #B03808",
"~ 	c #D04008",
"{ 	c #B83810",
"] 	c #E05010",
"^ 	c #E85008",
"/ 	c #E85810",
"( 	c #501808",
"_ 	c #F85810",
": 	c #F06010",
"< 	c #F86810",
"[ 	c #F87810",
"} 	c #F88818",
"| 	c #F87010",
"1 	c #F88018",
"2 	c #F89020",
"3 	c #F86010",
"4 	c #883018",
"5 	c #F8A820",
"6 	c #C86840",
"7 	c #A84830",
"8 	c #982808",
"9 	c #F8F028",
"0 	c #F8D028",
"a 	c #F8B820",
"b 	c #F89018",
"c 	c #F8A058",
"d 	c #F06838",
"e 	c #F8F840",
"f 	c #F8E868",
"g 	c #F89850",
"h 	c #F8F868",
"i 	c #F8D870",
"j 	c #F87828",
"k 	c #F8F858",
"l 	c #F8B060",
"m 	c #201818",
"n 	c #F87820",
"o 	c #F8E058",
"p 	c #F8C058",
"q 	c #F87838",
"r 	c #F86018",
"s 	c #101010",
"t 	c #F8A028",
"u 	c #F8D838",
"v 	c #F0E080",
"w 	c #F8A840",
"x 	c #F8B058",
"y 	c #F8C060",
"z 	c #181010",
"A 	c #100808",
"B 	c #080808",
"C 	c #F8C868",
"D 	c #080000",
"E 	c #302820",
"F 	c #F89038",
"G 	c #F88848",
"H 	c #F88048",
"I 	c #F06020",
"J 	c #281818",
"K 	c #403028",
"L 	c #483028",
"M 	c #302020",
"N 	c #302018",
"O 	c #482018",
"P 	c #E87848",
"Q 	c #F89058",
"R 	c #F86828",
"S 	c #F05838",
"T 	c #C04820",
"U 	c #983820",
"V 	c #381818",
"W 	c #382828",
"X 	c #282020",
"Y 	c #504030",
"Z 	c #584030",
"` 	c #905038",
" .	c #987048",
"..	c #E08858",
"+.	c #D85028",
"@.	c #F89858",
"#.	c #A05838",
"$.	c #604838",
"%.	c #181810",
"&.	c #403830",
"*.	c #684030",
"=.	c #806040",
"-.	c #B85838",
";.	c #E0A068",
">.	c #C05030",
",.	c #883828",
"'.	c #582818",
").	c #101008",
"!.	c #282018",
"~.	c #785840",
"{.	c #B86840",
"].	c #E85020",
"^.	c #D89860",
"/.	c #F8B870",
"(.	c #983830",
"_.	c #886040",
":.	c #381008",
"<.	c #382820",
"[.	c #F07840",
"}.	c #C87850",
"|.	c #704028",
"1.	c #705840",
"2.	c #A88058",
"3.	c #A87850",
"4.	c #583828",
"5.	c #281008",
"6.	c #201810",
"7.	c #703028",
"8.	c #884830",
"9.	c #785038",
"0.	c #886848",
"a.	c #200808",
"b.	c #584830",
"c.	c #987850",
"d.	c #582828",
"e.	c #685038",
"f.	c #503828",
"g.	c #403828",
"h.	c #A88860",
"i.	c #705838",
"j.	c #806848",
"k.	c #907050",
"l.	c #383020",
"m.	c #685838",
"n.	c #B08858",
"o.	c #301008",
"p.	c #C09060",
"q.	c #484028",
"r.	c #504028",
"s.	c #786048",
"t.	c #786040",
"u.	c #605038",
"v.	c #403020",
"w.	c #302818",
"x.	c #483828",
"y.	c #282010",
"z.	c #584028",
"A.	c #400000",
"B.	c #902008",
"C.	c #181008",
"D.	c #685840",
"E.	c #604830",
"F.	c #807858",
"G.	c #303028",
"H.	c #504838",
"I.	c #686850",
"J.	c #505840",
"                                                    . + @ .                               .                                     ",
"                                                    # + @ .                           $ % .                                     ",
"                                                  + + + #                             . + .                                     ",
"                                                @ % & @                                 .                                       ",
"                                                * & = @                                                                         ",
"                                                + & - @                                                                         ",
"                                                @ $ % @ .                                                                       ",
"                                                ; + % $ + # @ #                                                                 ",
"                                                # * - > , $ % = *                                                               ",
"                                                  * ' ) ) ! ' ~ { ;           # @                                               ",
"                                                  + { ] ^ / ] ] ] & ( @       % = .                                             ",
"                                                  ; ! _ _ : < : ] - $ ;     # ! > +                                             ",
"                                                  # { : < [ } [ ] - & ;     * ~ ] &       (                                     ",
"                                                  # ! _ | 1 2 [ ) - $ ; .   $ { _ '       #                                     ",
"                                                  # , _ < [ } : > & @ @ . . - ~ < > # # + + #                                   ",
"                            #   + +       * * @   . $ ] 3 : | ~ ' * # ; @ ; ' ) : > + - ~ ! ' - %                               ",
"                            ;   @ , + # % ! > = $ * % ) 3 ^ ) = * ; @ + * & ~ ~ > ' - ) | < 3 ) )                               ",
"                            .     + % + - ~ ^ _ ] ) ~ ] ^ ] ' 4 * + + ; - ' ) > = & ! 3 1 [ : ] ]                               ",
"                                    . @ + , ) < } 5 } 3 _ : > 6 7 8 * * ' ' ~ > % & ) < < ^ > > '                               ",
"                                        . * ! : 5 9 0 a b [ < c d ! - % - % - ' $ , ~ ] ~ = - , +                               ",
"                                        ( + , _ 2 9 e e 0 5 a f g ~ ! - + ; % ! { > ~ ' - @ + *                                 ",
"                                        * + , ^ 1 0 e e e e h h i j ] > - - { ] ] ) ~ = $ . @ .                                 ",
"                                  . . + % = ) < 2 9 e k e k h f i l < ] ~ ] ^ / ^ ^ ~ & + # #                                   ",
"                  m             = , % = { / n 5 0 e k k k k h h o p g q j j n : _ r > + ( . #               m                   ",
"              m m s             ! ] { ' ) n t u h h h h k k h v h u w x l y y c j r ~ % * * +               s m m               ",
"            z A B A             $ ~ > { / n t f f f o o f h h h h h o p x y i C l < ] ~ { , $ + #           A B A z             ",
"          s B D B s E E           $ ! ~ ] j c c F G g l C i v f h v k o p o p H G H I < r ! @ @         E E s B D B s           ",
"          A D D A B J K L L M m N O 7 6 P Q q R R d d q F F F l x w w p w w F S T P x w G U O O V W L L K J B A D D A           ",
"            D A A D m L L X E L Y Z `  . ...S S +.S d q j d S d S S d H H q d S 7 d @.g 6 #.$.Y W E X L L m D A A D             ",
"              B D %.J E J m &.&.Z K K *.=.-.+.+.T +.S d S S d ;.6 >.>.S +.S +.7 7 S H #.,.'.L L L &.m J E J %.D B               ",
"                A z z ).z E W W V z !.K ~.{.+.].].>.6 P G ..^./.;.^.{.-.#.{.-.(.(.#._.*.'.:.N K W W E z ).z z A                 ",
"                  A B ).X X X !.z O m <.*.{.>.d [.#. .}.6 >.{.}.{.#.7 |.1.2.3.-.,._.~.4.V J 5.V !.X X X ).B A                   ",
"                    D z %.z m s %.6.5.K *._.{.6 >.4 U U 7 7  ._.` ,.,.,.7.7.8.|.9.0.$.K N :.J a.s m z %.z D                     ",
"                      ).B ).A A z z !.K b.9.c.,.4 7.,.,.,.,.7.$.*.7.7.7.7.,.7.d.0.=.e.f.V :.J z A A ).B ).                      ",
"                              A B s 6.g.Z b.c.3.O O d.d.d.7.7.,.7.7.d.d.d.d.O _.h.9.$.Z !.6.s B A                               ",
"                                  ).A A g.e.i.j.0.O d.d.O 7.k.c.~.d.O O d.O *.h.j.i.e.g.A z ).                                  ",
"                                  <.l.z !.m.m.e.n.9.o.V d.k.h.k.h.k.4.V V *.p.n.e.m.m.!.z l.<.                                  ",
"                                  Y Y l.m q.r.Z 0.p.*.k.h.s.r.Y Y t.2.~.4.3.p.0.Z r.q.m l.Y Y                                   ",
"                                  u.u.Y v.!.w.x.1.3.p.k.x.o.o.5.5.o.o.x.k.p.3.1.x.w.!.v.Y u.u.                                  ",
"                                  u.m.b.g.!.D w.r.u. .3. .` *.~.~.*.`  .3. .u.r.w.D !.g.b.m.u.                                  ",
"                                  Y u.q.w.z D D y.l.z.i.=. .^.^.^.^. .=.i.z.l.y.D D z w.q.u.Y                                   ",
"                                  !.q.x.E D D D D D w.f.e.r.e.i.i.e.r.e.f.w.D D D D D E x.q.!.                                  ",
"                                  ).!.l.g.m D D A.B.D y.v.x.Z r.r.Z x.v.y.D B.A.D D m g.l.!.).                                  ",
"                                    C.!.<.z D D A.A.A.D D 6.N w.w.N 6.D D A.A.A.D D z <.!.C.                                    ",
"                                      %.!.6.).D D D D D D i.D D D D i.D D D D D D ).6.!.%.                                      ",
"                                        l.x.v.!.m w.x.x.v.n.^.;.;.^.n.v.x.x.w.m !.v.x.l.                                        ",
"                                          w.v.Y b.i.t.j.j.2.n.3.3.n.2.j.j.t.i.b.Y v.w.                                          ",
"                                            m v.Y u.e.D.D.1.t.u.u.t.1.D.D.e.u.Y v.m                                             ",
"                                              D l.x.Y E.l.D D b.b.D D l.E.Y x.l.D                                               ",
"                                              x.%.<.r.l.D D D r.r.D D D l.r.<.%.x.                                              ",
"                                              u.w.<.<.!.D D D l.l.D D D !.<.<.w.u.                                              ",
"                                              1.m l.!.m.D b.Y w.w.Y b.D m.!.l.m 1.                                              ",
"                                              1.g.!.E <.g.!.%.6.6.%.!.g.<.E !.g.1.                                              ",
"                                              e.F.G.6.%.E C.!.z z !.C.E %.6.G.F.e.                                              ",
"                                              u.D.m     H.q.G.    G.q.H.    m D.u.                                              ",
"                                              z.t.k.j.  E G.D     D G.E   j.k.t.z.                                              ",
"                                                Y I.D.F.).D         D ).F.D.I.Y                                                 ",
"                                                %.&.H.J.                J.H.&.%.                                                ",
"                                                  K Y X &.I.I.    I.I.&.X Y K                                                   ",
"                                                  !.E E D.Y &.1.1.&.Y D.E E !.                                                  ",
"                                                      E Z Y l.u.u.l.Y Z E                                                       ",
"                                                                                                                                ",
"                                                                                                                                ",
"                                                                                                                                "};
