/* XPM */
static char * 3_xpm[] = {
"64 64 170 2",
"  	c None",
". 	c #501800",
"+ 	c #682008",
"@ 	c #802808",
"# 	c #581800",
"$ 	c #B03808",
"% 	c #B83810",
"& 	c #A03008",
"* 	c #882808",
"= 	c #782808",
"- 	c #481800",
"; 	c #E85008",
"> 	c #D04008",
", 	c #A83808",
"' 	c #983008",
") 	c #501808",
"! 	c #903008",
"~ 	c #D84810",
"{ 	c #602000",
"] 	c #C04008",
"^ 	c #702008",
"/ 	c #F87010",
"( 	c #F87810",
"_ 	c #F06010",
": 	c #F89018",
"< 	c #F8B820",
"[ 	c #F89020",
"} 	c #F8D028",
"| 	c #F8A820",
"1 	c #F8F028",
"2 	c #F8F840",
"3 	c #F8C028",
"4 	c #F85810",
"5 	c #E85810",
"6 	c #F88018",
"7 	c #F87828",
"8 	c #E05010",
"9 	c #F8F858",
"0 	c #F8E058",
"a 	c #F87820",
"b 	c #F86010",
"c 	c #F8F868",
"d 	c #F8D838",
"e 	c #F86810",
"f 	c #F0E080",
"g 	c #F88820",
"h 	c #F8B028",
"i 	c #201818",
"j 	c #F8A028",
"k 	c #F86018",
"l 	c #101010",
"m 	c #F8A058",
"n 	c #F8D870",
"o 	c #F8E868",
"p 	c #F8C060",
"q 	c #181010",
"r 	c #100808",
"s 	c #080808",
"t 	c #F89038",
"u 	c #F8B870",
"v 	c #F8C058",
"w 	c #F8B060",
"x 	c #F89858",
"y 	c #F8C868",
"z 	c #F8B058",
"A 	c #080000",
"B 	c #302820",
"C 	c #381008",
"D 	c #703018",
"E 	c #A84830",
"F 	c #F87838",
"G 	c #F88048",
"H 	c #F06838",
"I 	c #F88848",
"J 	c #F8A840",
"K 	c #281818",
"L 	c #403028",
"M 	c #483028",
"N 	c #302020",
"O 	c #382828",
"P 	c #403020",
"Q 	c #705838",
"R 	c #A87850",
"S 	c #C87850",
"T 	c #F07840",
"U 	c #F86828",
"V 	c #F05838",
"W 	c #C05030",
"X 	c #983820",
"Y 	c #482018",
"Z 	c #381818",
"` 	c #282020",
" .	c #504030",
"..	c #584030",
"+.	c #685038",
"@.	c #785840",
"#.	c #987048",
"$.	c #E87848",
"%.	c #F89850",
"&.	c #C86840",
"*.	c #A05838",
"=.	c #604838",
"-.	c #181810",
";.	c #403830",
">.	c #382820",
",.	c #886040",
"'.	c #F05820",
").	c #E85020",
"!.	c #D85028",
"~.	c #F8A060",
"{.	c #983830",
"].	c #883828",
"^.	c #582818",
"/.	c #101008",
"(.	c #302018",
"_.	c #583828",
":.	c #B85838",
"<.	c #E08858",
"[.	c #F8A068",
"}.	c #C08858",
"|.	c #907050",
"1.	c #684030",
"2.	c #282018",
"3.	c #884830",
"4.	c #704028",
"5.	c #905038",
"6.	c #785038",
"7.	c #806848",
"8.	c #886848",
"9.	c #281008",
"0.	c #201810",
"a.	c #B86840",
"b.	c #703028",
"c.	c #582828",
"d.	c #200808",
"e.	c #584830",
"f.	c #987850",
"g.	c #883018",
"h.	c #806040",
"i.	c #503828",
"j.	c #403828",
"k.	c #A88860",
"l.	c #383020",
"m.	c #685838",
"n.	c #B08858",
"o.	c #301008",
"p.	c #C09060",
"q.	c #484028",
"r.	c #504028",
"s.	c #786048",
"t.	c #786040",
"u.	c #A88058",
"v.	c #605038",
"w.	c #302818",
"x.	c #483828",
"y.	c #705840",
"z.	c #282010",
"A.	c #584028",
"B.	c #D89860",
"C.	c #400000",
"D.	c #902008",
"E.	c #181008",
"F.	c #E0A068",
"G.	c #685840",
"H.	c #604830",
"I.	c #807858",
"J.	c #303028",
"K.	c #504838",
"L.	c #686850",
"M.	c #505840",
"                                                                                                                                ",
"                                                                                                                                ",
"                                                                                                                                ",
"                                                  .                                                                             ",
"                                                  + @ + .                                                                       ",
"                                                  # $ % & * = =                                                                 ",
"                                              - - # % ; > , & ' )                                                               ",
"                                                  # & ; > ' ' =                                                                 ",
"                                                  - ! ~ & + { -               )                                                 ",
"                                                    = ] * -               - - #                                                 ",
"                            -                       ^ $ =                 - - #                                                 ",
"                            .               . ) .   = ' ^ -               - . #                                                 ",
"                                          ! ] ] & ^ ^ * ^ # .     -       - + + -                                               ",
"                                        - ~ / ( _ > * = ^ ^ ^ -       -     + ^ .                                               ",
"                                        - > : < [ ( ~ @ @ ! @ +       -     + + -                                               ",
"                                        - % [ } } } ( ] $ ] ' ! + -       - = ^ ^ ^                                             ",
"                                      . ^ > | 1 2 2 3 / 4 4 > $ , +       = $ ! & !                                             ",
"                                    { = ! 5 < 2 2 2 2 } | 6 7 4 > +       * 8 > $ @                                             ",
"                            - . - + ! @ % / < 2 9 9 2 2 1 } 0 a > @ -   ) , b ~ ! .                                             ",
"                            + ' * ' & & 8 [ } 2 9 9 9 9 2 2 c d / ~ & ^ ! 8 e % #   { + .                                       ",
"                            - @ , $ , ] _ [ < 1 2 2 2 9 9 c f 9 } g 4 8 5 6 ( , - + ! & +                                       ",
"                                * % $ > b 6 [ 3 1 2 2 2 c f f c 9 } h | < } [ % = & ] $ ^ - - -                                 ",
"                                # ' ' % 4 / a [ 3 2 2 2 c c c c c 2 2 1 2 1 [ ; ] ] ~ $ = + = ^                                 ",
"                i                 + ^ & 5 e / j d 9 c c 9 c f c 9 c c 9 9 d [ k 8 > ] $ & , $ !           i                     ",
"            i i l                 - ) @ 8 / m n o o 9 9 9 c c 0 d d 0 0 o o p 7 4 ~ > ~ 8 _ 4 , .         l i i                 ",
"          q r s r                   ) = 8 t u p p v n c c c o p n w x x y y y z / 4 ; ; _ / + .           r s r q               ",
"        l s A s l B B             C D E F m t F F G m z 0 n n y u G H H G I t J J t e 4 4 # #         B B l s A s l             ",
"        r A A r s K L M M N i O P Q R S x t t t F T T 7 t v w I U V W E W H T 7 z p m G X Y Y Z O M M L K s r A A r             ",
"          A r r A i M M ` B M  ...+.@.#.$.G t 7 7 T V V F t G H V W W E E W V H F %.G &.*.=. .O B ` M M i A r r A               ",
"            s A -.K B K i ;.;...B >...,.W H 7 '.).!.W !.F ~.u G W {.E {.].E !.V F G *.].^.M M M ;.i K B K -.A s                 ",
"              r q q /.q B O O Z q (._.@.#.!.!.W :.R R S <.[.[.<.}.@.@.|.R :.!.{.*.,.1.^.C (.L O O B q /.q q r                   ",
"                r s /.` ` ` 2.q Y Z D 3.#.:.W *.4.,.*.5.E $.$.*.6._.L =.7.8.:.].,.@._.Z K 9.Z 2.` ` ` /.s r                     ",
"                  A q -.q i l -.0.9.L 1.a.#.3.b.D X ].].{.:.a.6.b.b.b.b.c.3.4.6.8.=.L (.C K d.l i q -.q A                       ",
"                    /.s /.r r q q 2.L e.6.f.].g.b.b.b.b.].b.=.1.b.b.c.c.].b.c.8.h.+.i.Z C K q r r /.s /.                        ",
"                            r s l 0.j...e.f.R Y Y c.c.c.b.b.].b.b.c.c.c.c.Y ,.k.6.=...2.0.l s r                                 ",
"                                /.r r j.+.Q 7.8.Y c.c.Y b.|.f.@.c.Y Y c.Y 1.k.7.Q +.j.r q /.                                    ",
"                                >.l.q 2.m.m.+.n.6.o.Z c.|.k.|.k.|._.Z Z 1.p.n.+.m.m.2.q l.>.                                    ",
"                                 . .l.i q.r...8.p.1.|.k.s.r. . .t.u.@._.R p.8...r.q.i l. . .                                    ",
"                                v.v. .P 2.w.x.y.R p.|.x.o.o.9.9.o.o.x.|.p.R y.x.w.2.P  .v.v.                                    ",
"                                v.m.e.j.2.A w.r.v.#.R #.5.1.@.@.1.5.#.R #.v.r.w.A 2.j.e.m.v.                                    ",
"                                 .v.q.w.q A A z.l.A.Q h.#.B.B.B.B.#.h.Q A.l.z.A A q w.q.v. .                                    ",
"                                2.q.x.B A A A A A w.i.+.r.+.Q Q +.r.+.i.w.A A A A A B x.q.2.                                    ",
"                                /.2.l.j.i A A C.D.A z.P x...r.r...x.P z.A D.C.A A i j.l.2./.                                    ",
"                                  E.2.>.q A A C.C.C.A A 0.(.w.w.(.0.A A C.C.C.A A q >.2.E.                                      ",
"                                    -.2.0./.A A A A A A Q A A A A Q A A A A A A /.0.2.-.                                        ",
"                                      l.x.P 2.i w.x.x.P n.B.F.F.B.n.P x.x.w.i 2.P x.l.                                          ",
"                                        w.P  .e.Q t.7.7.u.n.R R n.u.7.7.t.Q e. .P w.                                            ",
"                                          i P  .v.+.G.G.y.t.v.v.t.y.G.G.+.v. .P i                                               ",
"                                            A l.x. .H.l.A A e.e.A A l.H. .x.l.A                                                 ",
"                                            x.-.>.r.l.A A A r.r.A A A l.r.>.-.x.                                                ",
"                                            v.w.>.>.2.A A A l.l.A A A 2.>.>.w.v.                                                ",
"                                            y.i l.2.m.A e. .w.w. .e.A m.2.l.i y.                                                ",
"                                            y.j.2.B >.j.2.-.0.0.-.2.j.>.B 2.j.y.                                                ",
"                                            +.I.J.0.-.B E.2.q q 2.E.B -.0.J.I.+.                                                ",
"                                            v.G.i     K.q.J.    J.q.K.    i G.v.                                                ",
"                                            A.t.|.7.  B J.A     A J.B   7.|.t.A.                                                ",
"                                               .L.G.I./.A         A /.I.G.L. .                                                  ",
"                                              -.;.K.M.                M.K.;.-.                                                  ",
"                                                L  .` ;.L.L.    L.L.;.`  .L                                                     ",
"                                                2.B B G. .;.y.y.;. .G.B B 2.                                                    ",
"                                                    B .. .l.v.v.l. ...B                                                         ",
"                                                                                                                                ",
"                                                                                                                                ",
"                                                                                                                                "};
